<?xml version="1.0" encoding="UTF-8"?>
<svg id="Livello_2" xmlns="http://www.w3.org/2000/svg" version="1.1" viewBox="0 0 600 600">
  <!-- Generator: Adobe Illustrator 29.3.1, SVG Export Plug-In . SVG Version: 2.1.0 Build 151)  -->
  <defs>
    <style>
      .st0 {
        fill: #fff;
      }

      .st0, .st1, .st2, .st3 {
        stroke: #000;
        stroke-miterlimit: 10;
      }

      .st0, .st2, .st3 {
        stroke-width: 10px;
      }

      .st1 {
        stroke-width: 20px;
      }

      .st1, .st3 {
        fill: none;
      }
    </style>
  </defs>
  <path class="st1" d="M125.5,266.5c-5.69-4.82-15.19-14.25-21-29-.92-2.33-14.35-38.2,8-69,18.47-25.45,51.99-34.52,80-26,29.28,8.9,42.48,33.98,45,39,13.46-4.47,31.87-9,54-10,30.87-1.39,55.95,4.69,72,10,2.74-6.05,11.11-22.38,30-33,3.31-1.86,16.07-8.68,34-9,6.08-.11,29.33-.16,49,17,28.4,24.77,23.34,62.73,23,65-3.8,25.25-19.95,40.56-25,45,6.44,11.19,11.36,21.1,15,29,7.29,15.81,11,28,11,36-8,36-78,129-197,132-21.16.53-48.06-4.25-55-6-11.44-2.88-50.29-11.29-87-43-22-19-51-48-62-82-2-12,18-52,26-66Z"/>
  <circle class="st2" cx="300.5" cy="404.5" r="23"/>
  <path class="st0" d="M205.5,333.5c-.26-13,10.1-24.47,23-25,14.06-.57,25.83,12.08,25,26-.75,12.63-11.71,23.55-25,23-12.83-.54-22.75-11.56-23-24Z"/>
  <path class="st0" d="M346.44,333.48c-.26-13,10.1-24.47,23-25,14.06-.57,25.83,12.08,25,26-.75,12.63-11.71,23.55-25,23-12.83-.54-22.75-11.56-23-24Z"/>
  <path class="st3" d="M423.5,212.5c7.36,5.79,13.67,11.58,19,17,10.51-10.82,10.06-26.98,2-35-9.05-9.01-28.08-8.13-38,6,5.36,3.38,11.09,7.35,17,12Z"/>
  <path class="st3" d="M171.53,215.94c7.38-5.76,14.52-10.49,21.06-14.37-7.99-12.79-23.78-16.23-33.5-10.33-10.92,6.63-14.62,25.32-3.28,38.33,4.57-4.4,9.8-9.01,15.72-13.63Z"/>
  <path class="st3" d="M365.64,273.83c-8.46-.85-17.01,3.79-21.66,10.77-2.48,3.73-6.19,11.63-3.25,14.91,3.76,4.21,16.41-1.44,23.31-6.05,1.98-1.32,13.62-9.1,11.79-14.73-1.3-4.01-8.72-4.76-10.2-4.9Z"/>
  <path class="st3" d="M232.04,273.55c8.46-.85,17.01,3.79,21.66,10.77,2.48,3.73,6.19,11.63,3.25,14.91-3.76,4.21-16.41-1.44-23.31-6.05-1.98-1.32-13.62-9.1-11.79-14.73,1.3-4.01,8.72-4.76,10.2-4.9Z"/>
  <path class="st3" d="M138,385c-15.55-32.58,20.25-68.78,33-69,7.16-.12,6.32,49.43,11,69,7.66,32.03,5,24,26,63-11.41-3.85-59.21-40.39-70-63Z"/>
  <path class="st3" d="M461.88,385.75c15.55-32.58-20.25-68.78-33-69-7.16-.12-6.32,49.43-11,69-7.66,32.03-5,24-26,63,11.41-3.85,59.21-40.39,70-63Z"/>
  <path class="st3" d="M300.5,337.5c11,0,57,46,70,58,1.4,1.29,5.25,24.43-8,32-13.06,7.47-62,33-62,0,0,33-48,8-61,0-14.55-8.96-12.92-32.53-10-35,13-11,62-55,71-55Z"/>
</svg>