<?xml version="1.0" encoding="UTF-8"?>
<svg id="Livello_2" xmlns="http://www.w3.org/2000/svg" version="1.1" viewBox="0 0 600 600">
  <!-- Generator: Adobe Illustrator 29.3.1, SVG Export Plug-In . SVG Version: 2.1.0 Build 151)  -->
  <defs>
    <style>
      .st0 {
        fill: #fff;
      }

      .st0, .st1, .st2, .st3 {
        stroke: #000;
        stroke-miterlimit: 10;
      }

      .st0, .st2, .st3 {
        stroke-width: 10px;
      }

      .st4 {
        font-size: 72px;
      }

      .st4, .st5 {
        font-family: BerlinSansFBDemi-Bold, 'Berlin Sans FB Demi';
        font-weight: 700;
      }

      .st1 {
        stroke-width: 20px;
      }

      .st1, .st3 {
        fill: none;
      }

      .st5 {
        font-size: 24px;
        letter-spacing: .25em;
      }
    </style>
  </defs>
  <path class="st1" d="M80.93,209.91c-7.13-6.05-19.04-17.87-26.33-36.37-1.15-2.92-18-47.9,10.03-86.53,23.16-31.91,65.2-43.28,100.32-32.6,36.72,11.17,53.27,42.61,56.43,48.91,16.88-5.61,39.96-11.29,67.72-12.54,38.71-1.74,70.17,5.89,90.29,12.54,3.44-7.59,13.93-28.06,37.62-41.38,4.16-2.34,20.16-10.89,42.64-11.29,7.63-.13,36.78-.2,61.45,21.32,35.61,31.07,29.27,78.67,28.84,81.51-4.77,31.67-25.02,50.86-31.35,56.43,8.08,14.04,14.24,26.46,18.81,36.37,9.14,19.83,13.79,35.11,13.79,45.14-10.03,45.14-97.81,161.76-247.04,165.53-26.54.67-60.27-5.33-68.97-7.52-14.35-3.61-63.06-14.16-109.1-53.92-27.59-23.83-63.95-60.19-77.75-102.83-2.51-15.05,22.57-65.21,32.6-82.76Z"/>
  <circle class="st2" cx="300.38" cy="382.96" r="28.84"/>
  <path class="st0" d="M181.25,293.93c-.33-16.3,12.67-30.69,28.84-31.35,17.63-.72,32.39,15.15,31.35,32.6-.94,15.84-14.69,29.54-31.35,28.84-16.08-.67-28.53-14.5-28.84-30.1Z"/>
  <path class="st0" d="M357.99,293.9c-.33-16.3,12.67-30.69,28.84-31.35,17.63-.72,32.39,15.15,31.35,32.6-.94,15.84-14.69,29.54-31.35,28.84-16.08-.67-28.53-14.5-28.84-30.1Z"/>
  <path class="st3" d="M454.62,142.2c9.23,7.26,17.14,14.52,23.83,21.32,13.17-13.57,12.61-33.83,2.51-43.89-11.35-11.3-35.22-10.19-47.65,7.52,6.73,4.24,13.91,9.22,21.32,15.05Z"/>
  <path class="st3" d="M138.65,146.5c9.26-7.22,18.2-13.16,26.4-18.03-10.02-16.04-29.82-20.35-42.01-12.95-13.69,8.32-18.33,31.75-4.11,48.07,5.73-5.51,12.29-11.3,19.72-17.09Z"/>
  <path class="st3" d="M382.07,219.1c-10.6-1.07-21.33,4.75-27.16,13.5-3.11,4.67-7.76,14.58-4.08,18.7,4.72,5.28,20.58-1.81,29.23-7.59,2.48-1.66,17.09-11.41,14.79-18.47-1.64-5.03-10.94-5.96-12.79-6.15Z"/>
  <path class="st3" d="M214.53,218.75c10.6-1.07,21.33,4.75,27.16,13.5,3.11,4.67,7.76,14.58,4.08,18.7-4.72,5.28-20.58-1.81-29.23-7.59-2.48-1.66-17.09-11.41-14.79-18.47,1.64-5.03,10.94-5.96,12.79-6.15Z"/>
  <path class="st3" d="M96.61,358.51c-19.5-40.85,25.39-86.25,41.38-86.53,8.98-.15,7.93,61.99,13.79,86.53,9.61,40.17,6.27,30.1,32.6,79-14.31-4.83-74.24-50.64-87.78-79Z"/>
  <path class="st3" d="M502.75,355.44c19.5-40.85-25.39-86.25-41.38-86.53-8.98-.15-7.93,61.99-13.79,86.53-9.61,40.17-6.27,30.1-32.6,79,14.31-4.83,74.24-50.64,87.78-79Z"/>
  <path class="st3" d="M300.38,298.95c13.79,0,71.48,57.68,87.78,72.73,1.76,1.62,6.58,30.63-10.03,40.13-16.38,9.36-77.75,41.38-77.75,0,0,41.38-60.19,10.03-76.49,0-18.25-11.23-16.2-40.79-12.54-43.89,16.3-13.79,77.75-68.97,89.03-68.97Z"/>
  <text class="st4" transform="translate(230.54 542.94)"><tspan x="0" y="0">DeD</tspan></text>
  <text class="st5" transform="translate(173 574.38)"><tspan x="0" y="0">Creative Studio</tspan></text>
</svg>